<?xml version="1.0" encoding="utf-8"?>
<!-- Generator: Adobe Illustrator 18.1.1, SVG Export Plug-In . SVG Version: 6.00 Build 0)  -->
<svg version="1.1" id="Layer_1" xmlns="http://www.w3.org/2000/svg" xmlns:xlink="http://www.w3.org/1999/xlink" x="0px" y="0px"
	 viewBox="400 0 200 200" enable-background="new 400 0 200 200" xml:space="preserve">
<g>
	<g>
		<path fill="#00143F" d="M470.7,133c3-0.9,5-3.3,5-6.3c0-4.5-4.2-7.3-10.8-7.3h-13.8v29.1h14.3c6.8,0,11.3-3.1,11.3-8.1
			C476.7,136.6,474.3,133.7,470.7,133z M458.7,125.3h5.8c2.1-0.1,3.4,1,3.4,2.7c0,1.8-1.3,2.9-3.4,2.9h-5.8V125.3z M464.5,142.5
			h-5.8v-6.1h5.8c2.7-0.1,4.3,1.1,4.3,3C468.8,141.3,467.1,142.5,464.5,142.5z"/>
		<path fill="#00143F" d="M502.1,120c-1.7-0.6-3.7-0.9-5.6-0.9c-9,0-15.7,6.3-15.7,14.7c0,8.5,6.7,14.8,15.7,14.8
			c2,0,3.9-0.3,5.6-0.9c6-2,10.1-7.4,10.1-13.9C512.2,127.3,508.1,122.1,502.1,120z M502.1,139.8c-1.5,1.5-3.4,2.4-5.6,2.4
			c-4.3,0-8-3.7-8-8.4c0-4.8,3.7-8.3,8-8.3c2.2,0,4.1,0.9,5.6,2.4c1.4,1.5,2.3,3.5,2.3,5.9C504.3,136.3,503.5,138.4,502.1,139.8z"/>
		<path fill="#00143F" d="M523,119.3h-8.8l9.7,14.3l-10.4,14.8h8.9l6.1-9l6.1,9h9.1L523,119.3z"/>
		<g>
			<path fill="#00143F" d="M534.8,119.3v11.1h1.3v-11.1H534.8z"/>
			<path fill="#00143F" d="M544.3,119.3h-4.5v11.1h4.4c3.2,0,5.7-2.4,5.7-5.6C550,121.7,547.5,119.3,544.3,119.3z M544.3,129.3H541
				v-8.8h3.2c2.5,0,4.5,1.9,4.5,4.4C548.7,127.3,546.8,129.3,544.3,129.3z"/>
		</g>
		<g>
			<path fill="#00143F" d="M487.6,81.1c0,2.5-2,4.5-4.5,4.5c-2.4,0-4.5-2-4.5-4.5c0-2.4,2-4.5,4.5-4.5
				C485.6,76.7,487.6,78.7,487.6,81.1z"/>
			<path fill="#00143F" d="M454.1,81.1c0,2.5-2,4.5-4.5,4.5c-2.5,0-4.5-2-4.5-4.5c0-2.4,2-4.5,4.5-4.5
				C452.2,76.7,454.1,78.7,454.1,81.1z"/>
			<circle fill="#00143F" cx="550.3" cy="81.1" r="4.5"/>
			<circle fill="#00143F" cx="516.9" cy="81.1" r="4.5"/>
			<path fill="#00143F" d="M537.6,53.6h-75.2c-7.1,0-12.8,5.7-12.8,12.7v29.6c0,7.1,5.7,12.8,12.8,12.8h75.2c7,0,12.7-5.7,12.7-12.8
				V66.3C550.3,59.3,544.6,53.6,537.6,53.6z M541.4,95.9c0,2.1-1.7,3.8-3.8,3.8h-75.2c-2.1,0-3.8-1.7-3.8-3.8V66.3
				c0-2.1,1.7-3.8,3.8-3.8h75.2c2.1,0,3.8,1.7,3.8,3.8V95.9z"/>
		</g>
		<g>
			<path fill="#00143F" d="M517.9,156.9c-0.5,0.3-1,0.5-1.6,0.5c-1.3,0-2.4-1-2.4-2.3c0-1.3,1.1-2.4,2.4-2.4c0.6,0,1.3,0.3,1.8,0.7
				l0.3-0.5c-0.5-0.5-1.3-0.8-2.1-0.8c-1.7,0-3.1,1.3-3.1,3c0,1.6,1.4,3,3.1,3c0.8,0,1.6-0.3,2.2-0.8v-2.1h-0.6V156.9z"/>
			<path fill="#00143F" d="M522.8,152.1h-0.7l-2.6,5.9h0.7l0.6-1.5h3.2l0.7,1.5h0.8L522.8,152.1z M521.1,155.8l1.3-3l1.3,3H521.1z"
				/>
			<path fill="#00143F" d="M531.6,152.1l-2.1,4.3l-2.1-4.3h-0.8v5.9h0.6V153l2.1,4.3h0.3l2.1-4.3l0.1,4.9h0.6v-5.9H531.6z"/>
			<path fill="#00143F" d="M535.1,157.3v-2h3v-0.6h-3v-2h3.3v-0.6h-4v5.9h4.1v-0.6H535.1z"/>
			<path fill="#00143F" d="M540.6,153.5c0-0.5,0.5-0.8,1.2-0.8c0.5,0,1.1,0.1,1.6,0.5l0.3-0.6c-0.5-0.3-1.2-0.5-1.9-0.5
				c-1.2,0-2,0.6-2,1.5c0,2.1,3.3,1.3,3.3,2.8c0,0.6-0.5,0.9-1.4,0.9c-0.6,0-1.4-0.3-2-0.8l-0.3,0.6c0.6,0.5,1.4,0.9,2.3,0.9
				c1.3,0,2.1-0.6,2.1-1.6C543.9,154.3,540.6,155,540.6,153.5z"/>
		</g>
	</g>
	<path fill="#00143F" d="M425.1,25.1v149.8h149.8V25.1H425.1z M572,172H428V28h144V172z"/>
</g>
</svg>
